<svg xmlns="http://www.w3.org/2000/svg" xmlns:xlink="http://www.w3.org/1999/xlink" id="processonSvg1000" viewBox="243.0 1196.0 873.0 110.0" width="873.0" height="110.0"><defs id="ProcessOnDefs1001"><marker id="ProcessOnMarker1012" markerUnits="userSpaceOnUse" orient="auto" markerWidth="16.23606797749979" markerHeight="10.550836550532098" viewBox="-1.0 -1.3763819204711736 16.23606797749979 10.550836550532098" refX="-1.0" refY="3.8990363547948754"><path id="ProcessOnPath1013" d="M12.0 3.8990363547948754L0.0 7.798072709589751V0.0Z" stroke="#323232" stroke-width="2.0" fill="#323232" transform="matrix(1.0,0.0,0.0,1.0,0.0,0.0)"/></marker><marker id="ProcessOnMarker1024" markerUnits="userSpaceOnUse" orient="auto" markerWidth="16.23606797749979" markerHeight="10.550836550532098" viewBox="-1.0 -1.3763819204711736 16.23606797749979 10.550836550532098" refX="-1.0" refY="3.8990363547948754"><path id="ProcessOnPath1025" d="M12.0 3.8990363547948754L0.0 7.798072709589751V0.0Z" stroke="#323232" stroke-width="2.0" fill="#323232" transform="matrix(1.0,0.0,0.0,1.0,0.0,0.0)"/></marker><marker id="ProcessOnMarker1032" markerUnits="userSpaceOnUse" orient="auto" markerWidth="16.23606797749979" markerHeight="10.550836550532098" viewBox="-1.0 -1.3763819204711736 16.23606797749979 10.550836550532098" refX="-1.0" refY="3.8990363547948754"><path id="ProcessOnPath1033" d="M12.0 3.8990363547948754L0.0 7.798072709589751V0.0Z" stroke="#323232" stroke-width="2.0" fill="#323232" transform="matrix(1.0,0.0,0.0,1.0,0.0,0.0)"/></marker><marker id="ProcessOnMarker1040" markerUnits="userSpaceOnUse" orient="auto" markerWidth="16.23606797749979" markerHeight="10.550836550532098" viewBox="-1.0 -1.3763819204711736 16.23606797749979 10.550836550532098" refX="-1.0" refY="3.8990363547948754"><path id="ProcessOnPath1041" d="M12.0 3.8990363547948754L0.0 7.798072709589751V0.0Z" stroke="#323232" stroke-width="2.0" fill="#323232" transform="matrix(1.0,0.0,0.0,1.0,0.0,0.0)"/></marker><marker id="ProcessOnMarker1049" markerUnits="userSpaceOnUse" orient="auto" markerWidth="16.23606797749979" markerHeight="10.550836550532098" viewBox="-1.0 -1.3763819204711736 16.23606797749979 10.550836550532098" refX="-1.0" refY="3.8990363547948754"><path id="ProcessOnPath1050" d="M12.0 3.8990363547948754L0.0 7.798072709589751V0.0Z" stroke="#323232" stroke-width="2.0" fill="#323232" transform="matrix(1.0,0.0,0.0,1.0,0.0,0.0)"/></marker><marker id="ProcessOnMarker1058" markerUnits="userSpaceOnUse" orient="auto" markerWidth="16.23606797749979" markerHeight="10.550836550532098" viewBox="-1.0 -1.3763819204711736 16.23606797749979 10.550836550532098" refX="-1.0" refY="3.8990363547948754"><path id="ProcessOnPath1059" d="M12.0 3.8990363547948754L0.0 7.798072709589751V0.0Z" stroke="#323232" stroke-width="2.0" fill="#323232" transform="matrix(1.0,0.0,0.0,1.0,0.0,0.0)"/></marker></defs><g id="ProcessOnG1002"><path id="ProcessOnPath1003" d="M243.0 1196.0H1116.0V1306.0H243.0V1196.0Z" fill="#ffffff"/><g id="ProcessOnG1004"><g id="ProcessOnG1005" transform="matrix(1.0,0.0,0.0,1.0,263.0,1216.0)" opacity="1.0"><path id="ProcessOnPath1006" d="M0.0 0.0L86.0 0.0L86.0 70.0L0.0 70.0Z" stroke="#ffffff" stroke-width="2.0" stroke-dasharray="none" opacity="1.0" fill="#ffffff"/><g id="ProcessOnG1007" transform="matrix(1.0,0.0,0.0,1.0,10.0,10.0)"><text id="ProcessOnText1008" fill="#000000" font-size="20" x="32.0" y="20.5" font-family="黑体" font-weight="bold" font-style="normal" text-decoration="none" family="黑体" text-anchor="middle" size="20">待测物</text><text id="ProcessOnText1009" fill="#000000" font-size="20" x="32.0" y="45.5" font-family="黑体" font-weight="bold" font-style="normal" text-decoration="none" family="黑体" text-anchor="middle" size="20">理量</text></g></g><g id="ProcessOnG1010"><path id="ProcessOnPath1011" d="M349.00000000000006 1251.0L367.6855545043946 1251.0L367.6855545043946 1251.0L371.13504103128935 1251.0" stroke="#323232" stroke-width="2.0" stroke-dasharray="none" fill="none" marker-end="url(#ProcessOnMarker1012)"/></g><g id="ProcessOnG1014" transform="matrix(1.0,0.0,0.0,1.0,386.3711090087891,1224.5)" opacity="1.0"><path id="ProcessOnPath1015" d="M0.0 0.0L84.62889099121088 0.0L84.62889099121088 53.0L0.0 53.0Z" stroke="#323232" stroke-width="2.0" stroke-dasharray="none" opacity="1.0" fill="#ffffff"/><g id="ProcessOnG1016" transform="matrix(1.0,0.0,0.0,1.0,10.0,14.0)"><text id="ProcessOnText1017" fill="#000000" font-size="20" x="31.31444549560544" y="20.5" font-family="黑体" font-weight="bold" font-style="normal" text-decoration="none" family="黑体" text-anchor="middle" size="20">探测器</text></g></g><g id="ProcessOnG1018" transform="matrix(1.0,0.0,0.0,1.0,507.81642150878895,1218.5)" opacity="1.0"><path id="ProcessOnPath1019" d="M0.0 0.0L87.18357849121105 0.0L87.18357849121105 65.0L0.0 65.0Z" stroke="#ffffff" stroke-width="2.0" stroke-dasharray="none" opacity="1.0" fill="#ffffff"/><g id="ProcessOnG1020" transform="matrix(1.0,0.0,0.0,1.0,10.0,20.0)"><text id="ProcessOnText1021" fill="#000000" font-size="20" x="32.591789245605526" y="20.5" font-family="黑体" font-weight="bold" font-style="normal" text-decoration="none" family="黑体" text-anchor="middle" size="20">电压值</text></g></g><g id="ProcessOnG1022"><path id="ProcessOnPath1023" d="M471.0 1251.0L489.4082107543945 1251.0L489.4082107543945 1251.0L492.5803535312892 1251.0" stroke="#323232" stroke-width="2.0" stroke-dasharray="none" fill="none" marker-end="url(#ProcessOnMarker1024)"/></g><g id="ProcessOnG1026" transform="matrix(1.0,0.0,0.0,1.0,632.6328430175779,1227.75)" opacity="1.0"><path id="ProcessOnPath1027" d="M0.0 0.0L66.62889099121094 0.0L66.62889099121094 46.5L0.0 46.5Z" stroke="#323232" stroke-width="2.0" stroke-dasharray="none" opacity="1.0" fill="#ffffff"/><g id="ProcessOnG1028" transform="matrix(1.0,0.0,0.0,1.0,10.0,10.75)"><text id="ProcessOnText1029" fill="#000000" font-size="20" x="22.31444549560547" y="20.5" font-family="黑体" font-weight="bold" font-style="normal" text-decoration="none" family="黑体" text-anchor="middle" size="20">ADC</text></g></g><g id="ProcessOnG1030"><path id="ProcessOnPath1031" d="M595.0 1251.0L613.816421508789 1251.0L613.816421508789 1251.0L617.3967750400781 1251.0" stroke="#323232" stroke-width="2.0" stroke-dasharray="none" fill="none" marker-end="url(#ProcessOnMarker1032)"/></g><g id="ProcessOnG1034" transform="matrix(1.0,0.0,0.0,1.0,735.816421508789,1226.0)" opacity="1.0"><path id="ProcessOnPath1035" d="M0.0 0.0L67.18357849121105 0.0L67.18357849121105 50.0L0.0 50.0Z" stroke="#ffffff" stroke-width="2.0" stroke-dasharray="none" opacity="1.0" fill="#ffffff"/><g id="ProcessOnG1036" transform="matrix(1.0,0.0,0.0,1.0,10.0,12.5)"><text id="ProcessOnText1037" fill="#000000" font-size="20" x="22.591789245605526" y="20.5" font-family="黑体" font-weight="bold" font-style="normal" text-decoration="none" family="黑体" text-anchor="middle" size="20">AD值</text></g></g><g id="ProcessOnG1038"><path id="ProcessOnPath1039" d="M699.2617340087888 1251.0L717.5390777587888 1251.0L717.5390777587888 1251.0L720.5803535312891 1251.0" stroke="#323232" stroke-width="2.0" stroke-dasharray="none" fill="none" marker-end="url(#ProcessOnMarker1040)"/></g><g id="ProcessOnG1042" transform="matrix(1.0,0.0,0.0,1.0,837.3711090087892,1221.5)" opacity="1.0"><path id="ProcessOnPath1043" d="M0.0 0.0L90.62889099121082 0.0L90.62889099121082 59.0L0.0 59.0Z" stroke="#323232" stroke-width="2.0" stroke-dasharray="none" opacity="1.0" fill="#ffffff"/><g id="ProcessOnG1044" transform="matrix(1.0,0.0,0.0,1.0,10.0,4.5)"><text id="ProcessOnText1045" fill="#000000" font-size="20" x="34.31444549560541" y="20.5" font-family="黑体" font-weight="bold" font-style="normal" text-decoration="none" family="黑体" text-anchor="middle" size="20">内/外</text><text id="ProcessOnText1046" fill="#000000" font-size="20" x="34.31444549560541" y="45.5" font-family="黑体" font-weight="bold" font-style="normal" text-decoration="none" family="黑体" text-anchor="middle" size="20">部校准</text></g></g><g id="ProcessOnG1047"><path id="ProcessOnPath1048" d="M803.0 1251.0L820.1855545043945 1251.0L820.1855545043945 1251.0L822.1350410312893 1251.0" stroke="#323232" stroke-width="2.0" stroke-dasharray="none" fill="none" marker-end="url(#ProcessOnMarker1049)"/></g><g id="ProcessOnG1051" transform="matrix(1.0,0.0,0.0,1.0,964.816421508789,1223.75)" opacity="1.0"><path id="ProcessOnPath1052" d="M0.0 0.0L131.18357849121105 0.0L131.18357849121105 54.5L0.0 54.5Z" stroke="#ffffff" stroke-width="2.0" stroke-dasharray="none" opacity="1.0" fill="#ffffff"/><g id="ProcessOnG1053" transform="matrix(1.0,0.0,0.0,1.0,10.0,2.25)"><text id="ProcessOnText1054" fill="#000000" font-size="20" x="54.591789245605526" y="20.5" font-family="黑体" font-weight="bold" font-style="normal" text-decoration="none" family="黑体" text-anchor="middle" size="20">计算得到的</text><text id="ProcessOnText1055" fill="#000000" font-size="20" x="54.591789245605526" y="45.5" font-family="黑体" font-weight="bold" font-style="normal" text-decoration="none" family="黑体" text-anchor="middle" size="20">待测物理量</text></g></g><g id="ProcessOnG1056"><path id="ProcessOnPath1057" d="M928.0 1251.0L946.4082107543945 1251.0L946.4082107543945 1251.0L949.5803535312891 1251.0" stroke="#323232" stroke-width="2.0" stroke-dasharray="none" fill="none" marker-end="url(#ProcessOnMarker1058)"/></g><g id="ProcessOnG1060" transform="matrix(0.9848077530122082,-0.17364817766692953,0.17364817766692953,0.9848077530122082,498.1557842209468,1255.0401535383232)" opacity="0.5"><path id="ProcessOnPath1061" d="M0.0 0.0L353.8195317838364 0.0L353.8195317838364 44.30932188389602L0.0 44.30932188389602Z" stroke="none" stroke-width="0.0" stroke-dasharray="none" opacity="1.0" fill="none"/><g id="ProcessOnG1062" transform="matrix(1.0,0.0,0.0,1.0,0.0,4.654660941948009)"><text id="ProcessOnText1063" fill="#737373" font-size="28" x="175.9097658919182" y="28.700000000000003" font-family="Verdana" font-weight="normal" font-style="normal" text-decoration="none" family="Verdana" text-anchor="middle" size="28">XianglongLu.github.io</text></g></g></g></g></svg>